<?xml version="1.0" standalone="no"?>
<!DOCTYPE svg PUBLIC "-//W3C//DTD SVG 20010904//EN"
 "http://www.w3.org/TR/2001/REC-SVG-20010904/DTD/svg10.dtd">
<svg version="1.0" xmlns="http://www.w3.org/2000/svg"
 width="512.000000pt" height="512.000000pt" viewBox="0 0 512.000000 512.000000"
 preserveAspectRatio="xMidYMid meet">
<metadata>
Created by potrace 1.12, written by Peter Selinger 2001-2015
</metadata>
<g transform="translate(0.000000,512.000000) scale(0.100000,-0.100000)"
fill="#000000" stroke="none">
<path d="M2976 4533 c-120 -161 -168 -296 -168 -478 0 -89 5 -127 26 -198 81
-275 303 -517 611 -668 391 -190 758 -168 986 60 73 73 140 174 154 233 l7 28
-93 -49 c-171 -90 -341 -124 -508 -102 -485 62 -904 478 -962 955 -11 90 -3
228 16 279 15 39 -15 13 -69 -60z"/>
<path d="M2081 4334 c-151 -165 -254 -370 -297 -591 -25 -127 -23 -347 5 -479
136 -656 691 -1202 1357 -1334 204 -41 464 -36 636 11 95 26 235 93 334 159
97 65 262 229 330 330 55 81 117 191 110 197 -2 2 -36 -17 -76 -43 -135 -87
-295 -152 -471 -190 -129 -29 -437 -26 -576 4 -520 113 -962 451 -1193 912
-158 315 -198 644 -119 983 12 49 19 90 16 93 -2 3 -28 -21 -56 -52z"/>
<path d="M904 3882 c-228 -321 -302 -461 -359 -681 -42 -163 -56 -427 -34
-629 41 -384 208 -769 477 -1102 96 -117 262 -286 365 -369 359 -290 865 -501
1319 -550 136 -15 393 -13 519 4 371 49 690 199 935 440 50 50 118 126 150
170 68 92 246 376 240 382 -2 3 -35 -18 -73 -44 -726 -518 -1658 -507 -2458
28 -564 377 -943 952 -1041 1579 -20 127 -23 417 -5 540 13 93 52 268 75 343
8 26 12 47 8 47 -4 -1 -57 -72 -118 -158z"/>
</g>
</svg>
