<?xml version="1.0" encoding="iso-8859-1"?>
<!-- Generator: Adobe Illustrator 16.0.0, SVG Export Plug-In . SVG Version: 6.00 Build 0)  -->
<!DOCTYPE svg PUBLIC "-//W3C//DTD SVG 1.1//EN" "http://www.w3.org/Graphics/SVG/1.1/DTD/svg11.dtd">
<svg version="1.1" id="Capa_1" xmlns="http://www.w3.org/2000/svg" xmlns:xlink="http://www.w3.org/1999/xlink" x="0px" y="0px"
	 width="400px" height="400px" viewBox="0 0 400 400" style="enable-background:new 0 0 400 400;" xml:space="preserve">
<g>
	<g>
		<path d="M390,313.955h-37.021V57.021c0-5.523-4.477-10-10-10H86.045V10c0-5.523-4.477-10-10-10H57.021c-5.523,0-10,4.477-10,10
			v37.021H10c-5.523,0-10,4.477-10,10v19.024c0,5.523,4.477,10,10,10h37.021v256.934c0,5.523,4.477,10,10,10h256.934V390
			c0,5.523,4.477,10,10,10h19.022c5.523,0,10-4.477,10-10v-37.021H390c5.523,0,10-4.477,10-10v-19.022
			C400,318.432,395.523,313.955,390,313.955z M86.045,313.955V86.045h227.909v227.909L86.045,313.955L86.045,313.955z"/>
	</g>
</g>
<g>
</g>
<g>
</g>
<g>
</g>
<g>
</g>
<g>
</g>
<g>
</g>
<g>
</g>
<g>
</g>
<g>
</g>
<g>
</g>
<g>
</g>
<g>
</g>
<g>
</g>
<g>
</g>
<g>
</g>
</svg>
